HIERARCHY
ROOT Hips
{
  OFFSET 0.849866 78.6569 -0.536788
  CHANNELS 6 Xposition Yposition Zposition Zrotation Xrotation Yrotation
  JOINT Bip01_Pelvis
  {
    OFFSET 0 0 0
    CHANNELS 6 Xposition Yposition Zposition Zrotation Xrotation Yrotation
    JOINT BN_Tail_01
    {
      OFFSET -5.52397 -0.332285 0
      CHANNELS 6 Xposition Yposition Zposition Zrotation Xrotation Yrotation
      JOINT BN_Tail_02
      {
        OFFSET 6.48885 -2.032e-005 0
        CHANNELS 6 Xposition Yposition Zposition Zrotation Xrotation Yrotation
        JOINT BN_Tail_03
        {
          OFFSET 7.08759 1.016e-005 -0.00261112
          CHANNELS 6 Xposition Yposition Zposition Zrotation Xrotation Yrotation
          End Site
          {
            OFFSET 0 0 0
          }
        }
      }
    }
    JOINT Bip01_Spine
    {
      OFFSET 4.02227 0.398968 0
      CHANNELS 6 Xposition Yposition Zposition Zrotation Xrotation Yrotation
      JOINT BN_UpperArm_R_01
      {
        OFFSET 4.84413 -3.22857 -3.65581
        CHANNELS 6 Xposition Yposition Zposition Zrotation Xrotation Yrotation
        JOINT BN_Forearm_R_01
        {
          OFFSET 8.51614 0 0
          CHANNELS 6 Xposition Yposition Zposition Zrotation Xrotation Yrotation
          JOINT BN_hand_R_01
          {
            OFFSET 10.1924 0 0
            CHANNELS 6 Xposition Yposition Zposition Zrotation Xrotation Yrotation
            JOINT BN_Finger_R_02
            {
              OFFSET 14.5949 -1.43855 0.585079
              CHANNELS 6 Xposition Yposition Zposition Zrotation Xrotation Yrotation
              End Site
              {
                OFFSET 0 0 0
              }
            }
            JOINT BN_Finger_R_01
            {
              OFFSET 14.4623 0 0
              CHANNELS 6 Xposition Yposition Zposition Zrotation Xrotation Yrotation
              End Site
              {
                OFFSET 0 0 0
              }
            }
          }
        }
      }
      JOINT BN_UpperArm_L_01
      {
        OFFSET 4.84412 -3.22858 3.65557
        CHANNELS 6 Xposition Yposition Zposition Zrotation Xrotation Yrotation
        JOINT BN_Forearm_L_01
        {
          OFFSET 8.51611 0 0
          CHANNELS 6 Xposition Yposition Zposition Zrotation Xrotation Yrotation
          JOINT BN_hand_L_01
          {
            OFFSET 10.1924 0 0
            CHANNELS 6 Xposition Yposition Zposition Zrotation Xrotation Yrotation
            JOINT BN_Finger_L_01
            {
              OFFSET 14.4623 0 0
              CHANNELS 6 Xposition Yposition Zposition Zrotation Xrotation Yrotation
              End Site
              {
                OFFSET 0 0 0
              }
            }
            JOINT BN_Finger_L_02
            {
              OFFSET 14.5949 1.43855 0.585071
              CHANNELS 6 Xposition Yposition Zposition Zrotation Xrotation Yrotation
              End Site
              {
                OFFSET 0 0 0
              }
            }
          }
        }
      }
      JOINT Bip01_R_Thigh
      {
        OFFSET -4.03411 -0.254132 -3.45377
        CHANNELS 6 Xposition Yposition Zposition Zrotation Xrotation Yrotation
        JOINT Bip01_R_Calf
        {
          OFFSET 3.92618 0 0
          CHANNELS 6 Xposition Yposition Zposition Zrotation Xrotation Yrotation
          JOINT Bip01_R_HorseLink
          {
            OFFSET 6.12319 0 0
            CHANNELS 6 Xposition Yposition Zposition Zrotation Xrotation Yrotation
            JOINT Bip01_R_Foot
            {
              OFFSET 9.94776 0 0
              CHANNELS 6 Xposition Yposition Zposition Zrotation Xrotation Yrotation
              JOINT Bip01_R_Toe3
              {
                OFFSET 0.881252 -0.110953 0.0158496
                CHANNELS 6 Xposition Yposition Zposition Zrotation Xrotation Yrotation
                JOINT Bip01_R_Toe31
                {
                  OFFSET 2.32137 0 0
                  CHANNELS 6 Xposition Yposition Zposition Zrotation Xrotation Yrotation
                  JOINT Bip01_R_Toe32
                  {
                    OFFSET 1.63293 0 0
                    CHANNELS 6 Xposition Yposition Zposition Zrotation Xrotation Yrotation
                    JOINT Bip01_R_Toe3Nub
                    {
                      OFFSET 1.72131 0 0
                      CHANNELS 6 Xposition Yposition Zposition Zrotation Xrotation Yrotation
                      End Site
                      {
                        OFFSET 0 0 0
                      }
                    }
                  }
                }
              }
              JOINT Bip01_R_Toe2
              {
                OFFSET 0.994751 0.967285 -1.09428
                CHANNELS 6 Xposition Yposition Zposition Zrotation Xrotation Yrotation
                JOINT Bip01_R_Toe21
                {
                  OFFSET 2.20201 0 0
                  CHANNELS 6 Xposition Yposition Zposition Zrotation Xrotation Yrotation
                  JOINT Bip01_R_Toe22
                  {
                    OFFSET 1.84925 0 0
                    CHANNELS 6 Xposition Yposition Zposition Zrotation Xrotation Yrotation
                    JOINT Bip01_R_Toe2Nub
                    {
                      OFFSET 1.70976 0 0
                      CHANNELS 6 Xposition Yposition Zposition Zrotation Xrotation Yrotation
                      End Site
                      {
                        OFFSET 0 0 0
                      }
                    }
                  }
                }
              }
              JOINT Bip01_R_Toe1
              {
                OFFSET 1.3748 1.34027 -0.0712419
                CHANNELS 6 Xposition Yposition Zposition Zrotation Xrotation Yrotation
                JOINT Bip01_R_Toe11
                {
                  OFFSET 2.26122 0 0
                  CHANNELS 6 Xposition Yposition Zposition Zrotation Xrotation Yrotation
                  JOINT Bip01_R_Toe12
                  {
                    OFFSET 2.22215 0 0
                    CHANNELS 6 Xposition Yposition Zposition Zrotation Xrotation Yrotation
                    JOINT Bip01_R_Toe1Nub
                    {
                      OFFSET 1.61867 0 0
                      CHANNELS 6 Xposition Yposition Zposition Zrotation Xrotation Yrotation
                      End Site
                      {
                        OFFSET 0 0 0
                      }
                    }
                  }
                }
              }
              JOINT Bip01_R_Toe0
              {
                OFFSET 1.40695 0.687986 0.883783
                CHANNELS 6 Xposition Yposition Zposition Zrotation Xrotation Yrotation
                JOINT Bip01_R_Toe01
                {
                  OFFSET 2.26828 0 0
                  CHANNELS 6 Xposition Yposition Zposition Zrotation Xrotation Yrotation
                  JOINT Bip01_R_Toe02
                  {
                    OFFSET 2.09769 0 0
                    CHANNELS 6 Xposition Yposition Zposition Zrotation Xrotation Yrotation
                    JOINT Bip01_R_Toe0Nub
                    {
                      OFFSET 1.53753 0 0
                      CHANNELS 6 Xposition Yposition Zposition Zrotation Xrotation Yrotation
                      End Site
                      {
                        OFFSET 0 0 0
                      }
                    }
                  }
                }
              }
            }
          }
        }
      }
      JOINT Bip01_L_Thigh
      {
        OFFSET -4.03411 -0.254147 3.45377
        CHANNELS 6 Xposition Yposition Zposition Zrotation Xrotation Yrotation
        JOINT Bip01_L_Calf
        {
          OFFSET 3.92616 0 0
          CHANNELS 6 Xposition Yposition Zposition Zrotation Xrotation Yrotation
          JOINT Bip01_L_HorseLink
          {
            OFFSET 6.1232 0 0
            CHANNELS 6 Xposition Yposition Zposition Zrotation Xrotation Yrotation
            JOINT Bip01_L_Foot
            {
              OFFSET 9.94775 0 0
              CHANNELS 6 Xposition Yposition Zposition Zrotation Xrotation Yrotation
              JOINT Bip01_L_Toe3
              {
                OFFSET 0.881246 -0.110986 -0.0157582
                CHANNELS 6 Xposition Yposition Zposition Zrotation Xrotation Yrotation
                JOINT Bip01_L_Toe31
                {
                  OFFSET 2.32136 0 0
                  CHANNELS 6 Xposition Yposition Zposition Zrotation Xrotation Yrotation
                  JOINT Bip01_L_Toe32
                  {
                    OFFSET 1.63293 0 0
                    CHANNELS 6 Xposition Yposition Zposition Zrotation Xrotation Yrotation
                    JOINT Bip01_L_Toe3Nub
                    {
                      OFFSET 1.7213 0 0
                      CHANNELS 6 Xposition Yposition Zposition Zrotation Xrotation Yrotation
                      End Site
                      {
                        OFFSET 0 0 0
                      }
                    }
                  }
                }
              }
              JOINT Bip01_L_Toe2
              {
                OFFSET 0.994649 0.967162 1.09447
                CHANNELS 6 Xposition Yposition Zposition Zrotation Xrotation Yrotation
                JOINT Bip01_L_Toe21
                {
                  OFFSET 2.202 0 0
                  CHANNELS 6 Xposition Yposition Zposition Zrotation Xrotation Yrotation
                  JOINT Bip01_L_Toe22
                  {
                    OFFSET 1.84926 0 0
                    CHANNELS 6 Xposition Yposition Zposition Zrotation Xrotation Yrotation
                    JOINT Bip01_L_Toe2Nub
                    {
                      OFFSET 1.70976 0 0
                      CHANNELS 6 Xposition Yposition Zposition Zrotation Xrotation Yrotation
                      End Site
                      {
                        OFFSET 0 0 0
                      }
                    }
                  }
                }
              }
              JOINT Bip01_L_Toe1
              {
                OFFSET 1.37483 1.34021 0.0715086
                CHANNELS 6 Xposition Yposition Zposition Zrotation Xrotation Yrotation
                JOINT Bip01_L_Toe11
                {
                  OFFSET 2.26124 0 0
                  CHANNELS 6 Xposition Yposition Zposition Zrotation Xrotation Yrotation
                  JOINT Bip01_L_Toe12
                  {
                    OFFSET 2.22214 0 0
                    CHANNELS 6 Xposition Yposition Zposition Zrotation Xrotation Yrotation
                    JOINT Bip01_L_Toe1Nub
                    {
                      OFFSET 1.61867 0 0
                      CHANNELS 6 Xposition Yposition Zposition Zrotation Xrotation Yrotation
                      End Site
                      {
                        OFFSET 0 0 0
                      }
                    }
                  }
                }
              }
              JOINT Bip01_L_Toe0
              {
                OFFSET 1.40707 0.688009 -0.883564
                CHANNELS 6 Xposition Yposition Zposition Zrotation Xrotation Yrotation
                JOINT Bip01_L_Toe01
                {
                  OFFSET 2.26828 0 0
                  CHANNELS 6 Xposition Yposition Zposition Zrotation Xrotation Yrotation
                  JOINT Bip01_L_Toe02
                  {
                    OFFSET 2.0977 0 0
                    CHANNELS 6 Xposition Yposition Zposition Zrotation Xrotation Yrotation
                    JOINT Bip01_L_Toe0Nub
                    {
                      OFFSET 1.53752 0 0
                      CHANNELS 6 Xposition Yposition Zposition Zrotation Xrotation Yrotation
                      End Site
                      {
                        OFFSET 0 0 0
                      }
                    }
                  }
                }
              }
            }
          }
        }
      }
      JOINT Bip01_Spine1
      {
        OFFSET 4.90674 -0.00437896 0
        CHANNELS 6 Xposition Yposition Zposition Zrotation Xrotation Yrotation
        JOINT Bip01_Neck
        {
          OFFSET 5.56447 -1.28357 0
          CHANNELS 6 Xposition Yposition Zposition Zrotation Xrotation Yrotation
          JOINT Bip01_Neck1
          {
            OFFSET 2.79308 -0.00219964 0
            CHANNELS 6 Xposition Yposition Zposition Zrotation Xrotation Yrotation
            JOINT Bip01_Head
            {
              OFFSET 2.79272 0 0
              CHANNELS 6 Xposition Yposition Zposition Zrotation Xrotation Yrotation
              JOINT BN_Mouth_01
              {
                OFFSET 4.19089 0.0665938 0
                CHANNELS 6 Xposition Yposition Zposition Zrotation Xrotation Yrotation
                End Site
                {
                  OFFSET 0 0 0
                }
              }
              JOINT Bip01_HeadNub
              {
                OFFSET 6.95118 0 0
                CHANNELS 6 Xposition Yposition Zposition Zrotation Xrotation Yrotation
                End Site
                {
                  OFFSET 0 0 0
                }
              }
            }
          }
        }
      }
    }
  }
}
MOTION
Frames:	3
Frame Time:	0.0333333
0.849866 91.44 0 79.4997 -90 174.441 0 0 0 -89.9989 6.1813 -89.9989 -5.52396 -0.332276 0 3.60574 -0.00141907 179.96 6.48885 1.42109e-014 -0.00446786 -23.8118 -3.22349e-009 7.10463e-010 7.08759 -7.6294e-006 -0.00440436 -24.1121 -0.0263749 0.0229731 4.02166 0.398865 -2.1684e-019 1.6647 1.35888e-018 5.21103e-011 4.84413 -3.22853 -3.65581 -83.068 -13.521 37.8433 8.51611 2.62261e-006 -1.14441e-005 36.3245 -0.000678763 -25.3968 10.1924 0 0 -30.9483 0.690135 -19.1549 14.5949 -1.43855 0.585079 -48.299 -1.49205 18.0223 14.4623 -9.53677e-007 0 -2.99747 -0.000244103 16.6477 4.84413 -3.22855 3.65557 97.9499 -13.3783 -142.159 8.5161 4.76838e-007 -7.10543e-015 -36.3245 0.000674841 -25.3968 10.1924 -7.62941e-006 -5.72204e-006 30.9483 -0.690141 -19.1549 14.4623 -7.15257e-007 -1.90735e-006 2.99747 0.000242728 16.6477 14.5949 1.43853 0.585092 48.299 1.49205 18.0222 -4.03281 -0.280029 -3.45452 -105.442 2.32243 -173.475 3.92613 3.8147e-006 4.76837e-007 -73.4114 -5.02451e-006 -1.68802e-005 6.12321 -7.62942e-006 9.53675e-007 130.557 -5.98511e-006 -7.36889e-006 9.94776 7.62943e-006 -0.00142002 -109.216 17.7818 4.96753 0.881234 -0.110986 0.0158141 168.344 -4.50351 -178.979 2.32136 -3.81473e-006 0 44.4425 -4.39256e-006 1.96907e-006 1.63293 0 -9.53675e-007 -102.598 -8.11825e-006 1.24215e-005 1.72131 -2.86108e-006 0 -3.03831e-007 1.09474e-005 5.18155e-008 0.994697 0.967072 -1.09449 26.5396 -25.6137 10.3145 2.202 2.38421e-006 0 40.0409 1.4401e-006 -3.13226e-007 1.84925 1.14443e-005 0 -35.3034 -1.99583e-005 -3.01458e-006 1.70976 -2.38423e-007 0 -2.95213e-007 7.13144e-007 2.6971e-007 1.37481 1.34022 -0.0715392 31.7106 2.29249 -1.41478 2.26123 -4.44094e-016 0 31.1828 7.46449e-006 -5.31441e-006 2.22215 -7.10552e-015 -8.88179e-016 -38.5073 -0.00114959 0.00330374 1.61868 3.81476e-006 -4.76837e-007 2.89302e-007 1.54533e-006 2.16918e-007 1.40699 0.688093 0.883588 41.5207 24.9845 -20.5047 2.26829 -9.53686e-007 -5.72204e-006 29.1653 9.91655e-006 1.21442e-006 2.09769 3.81475e-006 1.90735e-006 -61.0221 -2.46855e-006 2.06e-005 1.53753 -1.90739e-006 1.90735e-006 7.23276e-007 1.00222e-005 1.64661e-007 -4.03156 -0.281868 3.45377 -121.605 -0.257005 176.588 3.92616 0 1.78814e-007 -109.325 -3.07137e-007 4.38438e-007 6.1232 -1.52588e-005 -5.96046e-008 120.14 -5.45305e-006 -8.57972e-006 9.94776 7.10546e-015 -5.96046e-008 -74.1363 -14.9757 -4.78707 0.881242 -0.111001 -0.0157478 155.877 4.57552 179.955 2.32137 3.81474e-006 -9.53674e-007 44.4161 -0.00132489 -0.00323988 1.63293 -1.5259e-005 1.77636e-015 -43.5146 1.36839e-006 3.73474e-007 1.72131 -7.62954e-006 0 -179.961 -0.00653269 -0.00321587 0.994667 0.967103 1.09453 35.8042 23.7813 -14.1931 2.202 1.77638e-015 2.86102e-006 40.0446 -0.00928573 -0.0152401 1.84925 0 1.77636e-015 -72.6411 0.002815 0.00207315 1.70977 -1.90739e-006 -1.77636e-015 179.961 0.00515492 -0.00137077 1.37486 1.34019 0.0715823 40.3258 -2.0544 1.74184 2.26125 0 -4.76837e-007 31.1828 9.36424e-007 6.97375e-007 2.22213 -3.81475e-006 8.88178e-016 -38.5073 -1.41276e-005 -1.13981e-005 1.61866 1.77639e-015 0 179.961 -0.00288056 0.00793837 1.4071 0.688009 -0.883516 50.2045 -21.7173 23.9518 2.26827 -1.90737e-006 0 29.1653 4.48161e-006 2.64328e-006 2.0977 7.10553e-015 -5.72204e-006 -61.0261 0.00177446 -0.00303978 1.53753 9.53696e-007 1.90735e-006 179.961 -0.00579735 -0.000627816 4.90624 -0.00437165 -4.33681e-019 -2.39223 -5.21102e-011 -5.21118e-011 5.56442 -1.28356 -2.54018e-006 2.36774 5.21102e-011 -4.48624e-016 2.79239 -0.00222016 -2.32831e-010 -8.71634 2.31214e-011 1.07998e-011 2.79272 -2.28882e-005 1.16415e-010 15.4588 -1.5256e-010 2.77789e-011 4.19088 0.0665894 1.16415e-010 -174.161 -0.0340119 -179.998 6.95116 7.6294e-006 4.33681e-019 -4.14845e-009 3.88251e-019 -1.94126e-019 
0.932095 92.0207 3.5743e-008 49.0043 -89.9176 144 0 0 0 -89.9989 6.1813 -89.9989 -5.52396 -0.332276 9.71445e-017 1.04427 0.000366211 179.96 6.48885 -1.42109e-014 -0.00446786 -22.7468 -9.96762e-009 6.52833e-010 7.08759 -7.6294e-006 -0.00440436 -27.6898 -0.0277571 0.0212825 4.02166 0.398865 -9.71445e-017 1.85018 -0.00144728 -0.0162076 4.84413 -3.22853 -3.65581 -82.29 -12.4688 41.054 8.51611 2.62261e-006 -1.14441e-005 36.4045 0.374039 -25.0883 10.1924 2.13163e-014 -7.10543e-015 -30.9927 -0.536598 -21.7605 14.5949 -1.43855 0.585079 -43.5971 -4.26897 7.62521 14.4623 -9.53677e-007 5.32907e-015 0.603213 -2.19282 7.81016 4.84413 -3.22855 3.65557 98.1364 -11.7431 -139.236 8.5161 4.76838e-007 1.42109e-014 -36.4338 0.00128662 -25.1615 10.1924 -7.62941e-006 -5.72204e-006 30.9942 0.537631 -21.904 14.4623 -7.15257e-007 -1.90735e-006 -0.228691 1.84345 7.80729 14.5949 1.43853 0.585092 43.5971 4.26925 7.62509 -4.03594 -0.266458 -3.45141 -105.927 2.30714 -173.3 3.92613 3.8147e-006 4.76837e-007 -73.0496 -5.14548e-006 -1.68675e-005 6.12321 -7.62942e-006 9.53675e-007 128.631 -5.69416e-006 -7.58634e-006 9.94776 7.62943e-006 -0.00142002 -108.228 17.9153 4.98449 0.881234 -0.110986 0.0158141 168.344 -4.50407 -178.979 2.32136 -3.81473e-006 -8.88179e-016 42.9579 0.0233639 0.0250984 1.63293 -2.84221e-014 -9.53675e-007 -102.598 0.000437145 0.000112067 1.72131 -2.86108e-006 -7.10543e-015 -3.03831e-007 1.09474e-005 5.18155e-008 0.994697 0.967072 -1.09449 27.2324 -25.4989 10.6119 2.202 2.38421e-006 -1.06581e-014 38.4001 -0.0107855 -0.0136098 1.84925 1.14443e-005 -1.42109e-014 -35.2952 0.0206435 -0.0291921 1.70976 -2.38423e-007 -3.55271e-015 -2.95213e-007 7.13144e-007 2.6971e-007 1.37481 1.34022 -0.0715392 32.0923 2.28324 -1.42967 2.26123 5.32913e-015 8.88179e-016 29.4685 1.25377e-005 3.53491e-006 2.22215 0 5.32907e-015 -38.4818 0.0168296 -0.0193115 1.61868 3.81476e-006 -4.76837e-007 2.89302e-007 1.54533e-006 2.16918e-007 1.40699 0.688093 0.883588 41.7844 24.8948 -20.6159 2.26829 -9.53686e-007 -5.72204e-006 28.2087 -0.0126848 -0.0236651 2.09769 3.81475e-006 1.90735e-006 -61.0201 5.97953e-006 1.59559e-005 1.53753 -1.90739e-006 1.90735e-006 7.23276e-007 1.00222e-005 1.64661e-007 -4.02979 -0.269215 3.45673 -122.258 -0.276056 176.736 3.92616 1.42109e-014 1.78814e-007 -109.632 -3.00102e-007 4.17336e-007 6.1232 -1.52588e-005 -5.96046e-008 120.472 -5.47494e-006 -8.54827e-006 9.94776 0 -5.96046e-008 -75.5962 -14.7597 -5.13453 0.881242 -0.111001 -0.0157478 156.147 4.56293 179.928 2.32137 3.81474e-006 -9.53674e-007 43.8012 0.0215958 0.0206101 1.63293 -1.5259e-005 -1.77636e-015 -43.5142 -0.00026897 0.000285109 1.72131 -7.62954e-006 -3.55271e-015 -179.961 -0.00653269 -0.00321587 0.994667 0.967103 1.09453 35.8043 23.7813 -14.1931 2.202 3.55275e-015 2.86102e-006 39.2188 -0.0222629 -0.0315433 1.84925 0 -1.77636e-015 -72.6411 0.00258032 0.0021465 1.70977 -1.90739e-006 1.77636e-015 179.961 0.00515492 -0.00137077 1.37486 1.34019 0.0715823 40.3258 -2.0544 1.74184 2.26125 -1.77638e-015 -4.76837e-007 30.5502 -0.0143953 -0.0243901 2.22213 -3.81475e-006 -8.88178e-016 -38.4911 -0.00265255 0.00330659 1.61866 -8.88194e-016 -2.66454e-015 179.961 -0.00288056 0.00793837 1.4071 0.688009 -0.883516 50.2045 -21.7173 23.9518 2.26827 -1.90737e-006 -7.10542e-015 28.6755 -0.00160349 -0.00293728 2.0977 -2.13166e-014 -5.72204e-006 -61.0257 0.00143989 -0.00285439 1.53753 9.53696e-007 1.90735e-006 179.961 -0.00579735 -0.000627816 4.90624 -0.00437165 4.62824e-014 -1.47627 0.0266924 -0.210671 5.56442 -1.28356 -2.54017e-006 1.88419 -0.0338535 -0.0534654 2.79239 -0.00222016 -2.32706e-010 -9.3983 0.0302564 -0.041976 2.79272 -2.28882e-005 1.16411e-010 15.1672 -0.109358 0.056406 4.19088 0.0665894 1.03452e-010 -175.404 -0.0190582 -179.996 6.95116 7.6294e-006 -2.05391e-015 -4.14845e-009 0 4.96962e-017 
1.06639 92.9731 9.44897e-008 58.8036 -89.7247 153.863 0 0 0 -89.9989 6.1813 -89.9989 -5.52396 -0.332276 2.77556e-017 -2.46609 0.00279236 179.96 6.48885 -2.55796e-013 -0.00446786 -20.2804 -2.39295e-008 -4.41741e-010 7.08759 -7.6294e-006 -0.00440436 -31.1468 -0.0289899 0.0195701 4.02166 0.398865 2.77556e-017 2.03947 -0.0106087 -0.0641574 4.84413 -3.22853 -3.65581 -80.702 -9.82563 49.1393 8.51611 2.62261e-006 -1.14441e-005 36.5762 1.23693 -24.137 10.1924 3.55272e-014 -2.84217e-014 -31.4918 -3.14133 -26.9933 14.5949 -1.43855 0.585079 -36.8701 -9.90822 -14.9697 14.4623 -9.53677e-007 0 6.03774 -6.87482 -11.2655 4.84413 -3.22855 3.65557 98.1132 -7.94702 -131.794 8.51611 4.76838e-007 2.84217e-014 -36.6233 -7.0832e-005 -24.3309 10.1924 -7.62941e-006 -5.72204e-006 31.5153 3.13292 -27.3814 14.4623 -7.15257e-007 -1.90735e-006 -5.21182 6.40648 -11.2588 14.5949 1.43853 0.585092 36.8688 9.90212 -14.9674 -4.03895 -0.253326 -3.44841 -106.78 2.20979 -173.146 3.92613 3.8147e-006 4.76837e-007 -72.9163 -5.19717e-006 -1.68869e-005 6.12321 -7.62942e-006 9.53675e-007 125.776 -5.23693e-006 -7.88546e-006 9.94776 7.62943e-006 -0.00142002 -105.961 18.0485 4.86333 0.881234 -0.110986 0.0158141 168.346 -4.49348 -178.973 2.32136 -3.81473e-006 2.66454e-015 39.1459 0.019981 0.0245543 1.63293 0 -9.53675e-007 -102.598 0.00083669 0.000201697 1.72131 -2.86108e-006 -1.5099e-014 -3.03831e-007 1.09474e-005 5.18155e-008 0.994697 0.967072 -1.09449 29.0323 -25.1837 11.3807 2.202 2.38421e-006 -3.55271e-015 34.088 -0.044353 -0.0655405 1.84925 1.14443e-005 -3.90798e-014 -35.2908 0.0101131 -0.0143197 1.70976 -2.38423e-007 0 -2.95213e-007 7.13144e-007 2.6971e-007 1.37481 1.34022 -0.0715392 33.0865 2.25906 -1.46759 2.26123 1.33228e-015 8.88179e-016 24.9959 1.24293e-005 4.62305e-006 2.22215 -7.10552e-015 1.11022e-014 -38.4848 0.0204861 -0.0239087 1.61868 3.81476e-006 -4.76837e-007 2.89302e-007 1.54533e-006 2.16918e-007 1.40699 0.688093 0.883588 42.4632 24.6612 -20.9004 2.26829 -9.53686e-007 -5.72204e-006 25.552 -0.0185034 -0.0387206 2.09769 3.81475e-006 1.90735e-006 -61.0182 5.95336e-006 1.61383e-005 1.53753 -1.90739e-006 1.90735e-006 7.23276e-007 1.00222e-005 1.64661e-007 -4.02809 -0.256984 3.4596 -122.967 -0.330584 176.945 3.92616 0 1.78814e-007 -109.859 -2.81384e-007 3.80489e-007 6.1232 -1.52588e-005 -5.96046e-008 121.275 -5.54356e-006 -8.46959e-006 9.94776 0 -5.96046e-008 -77.4998 -14.5014 -5.46724 0.881242 -0.111001 -0.0157478 156.83 4.55471 179.873 2.32137 3.81474e-006 -9.53674e-007 42.0251 0.00736096 0.00619438 1.63293 -1.5259e-005 1.59872e-014 -43.5137 -0.000530721 0.000560633 1.72131 -7.62953e-006 -1.77636e-015 -179.961 -0.00653269 -0.00321587 0.994667 0.967103 1.09453 35.8043 23.7813 -14.1931 2.202 4.44094e-015 2.86102e-006 37.058 -0.0149824 -0.024315 1.84925 7.10552e-015 -1.77636e-015 -72.6411 0.00234552 0.00221975 1.70977 -1.90739e-006 1.77636e-015 179.961 0.00515492 -0.00137077 1.37486 1.34019 0.0715823 40.3258 -2.0544 1.74184 2.26125 -8.88188e-015 -4.76837e-007 28.9738 -0.0080148 -0.0144755 2.22213 -3.81475e-006 -2.66454e-015 -38.4749 -0.00527758 0.00661161 1.61866 -4.88506e-015 -2.66454e-015 179.961 -0.00288056 0.00793837 1.4071 0.688009 -0.883516 50.2045 -21.7173 23.9518 2.26827 -1.90737e-006 -1.06581e-014 27.5008 0.000915936 0.00175384 2.0977 7.10553e-015 -5.72204e-006 -61.0252 0.00112932 -0.00268216 1.53753 9.53696e-007 1.90735e-006 179.961 -0.00579735 -0.000627816 4.90624 -0.00437165 1.95038e-013 0.0410797 0.0648165 -0.600957 5.56442 -1.28356 -2.54001e-006 1.29667 -0.0991467 -0.154716 2.79239 -0.00222016 -2.32254e-010 -10.3759 0.0889805 -0.119184 2.79272 -2.28882e-005 1.16404e-010 14.9788 -0.290757 0.165575 4.19088 0.0665894 7.69208e-011 -176.607 -0.00463867 -179.994 6.95116 7.6294e-006 -5.93969e-015 -4.14845e-009 0 3.97569e-016 
